<svg width="165" height="114.00000000000001" xmlns="http://www.w3.org/2000/svg" xmlns:xlink="http://www.w3.org/1999/xlink" preserveAspectRatio="xMidYMid meet">
 <defs>
  <path id="f311ekMf7L" d="m206.68229,50.78261c0,14.60869 -12.27686,26.78261 -27.0091,26.78261c-14.73224,0 -25.78141,-13.39131 -25.78141,-26.78261c0,-14.6087 11.04917,-26.78261 25.78141,-26.78261c14.73224,0 27.0091,12.17391 27.0091,26.78261c0,0 0,0 0,0m-61.38432,29.21739c-6.13843,-9.73913 -15.95992,-9.73913 -22.09835,0c0,0 -1.22769,1.21739 -1.22769,1.21739c-4.91075,-7.30435 -9.82149,-15.82609 -13.50455,-23.13043c-8.59381,-14.6087 -22.09836,-14.6087 -30.69216,0c-8.59381,14.60869 -22.09836,37.73913 -30.69216,52.34782c-8.59381,14.6087 -1.22769,25.56522 15.95992,25.56522c0,0 94.53185,0 94.53185,0c12.27687,0 17.18761,-7.30435 11.04918,-18.26087c-6.13843,-10.95652 -15.95992,-26.78261 -23.32604,-37.73913c0,0 0,0 0,0"/>
 </defs>
 <g>
  <title>background</title>
  <rect fill="none" id="canvas_background" height="116" width="167" y="-1" x="-1"/>
 </g>
 <g>
  <title>Layer 1</title>
  <g id="svg_1">
   <g id="svg_2">
    <g id="svg_3">
     <use x="-42.482288" y="-22.999999" id="svg_4" fill="#b3b3b3" xlink:href="#f311ekMf7L"/>
    </g>
   </g>
  </g>
 </g>
</svg>